<svg id="logo-amblem" width="400px" height="394px" viewBox="0 0 400 394" version="1.1" xmlns="http://www.w3.org/2000/svg" xmlns:xlink="http://www.w3.org/1999/xlink">
    <g id="Page-1" stroke="none" stroke-width="1" fill="none" fill-rule="evenodd">
        <g id="Desktop-HD-Copy" transform="translate(-338.000000, -20.000000)">
            <g transform="translate(338.000000, 20.000000)">
                <path d="M158.549,109.818 L154.2,117.271 L144.5,117.096 C139.165,117 134.8,116.987 134.8,117.068 C134.8,117.15 135.222,117.887 135.738,118.708 C138.877,123.703 172,180.033 172,180.377 C172,180.665 160.774,180.828 136.023,180.898 L100.046,181 L104.023,188.2 C106.21,192.16 107.989,195.58 107.977,195.8 C107.966,196.02 105.735,199.71 103.021,204 L98.085,211.8 L135.211,212 L172.337,212.2 L169.971,216.2 C168.669,218.4 167.453,220.47 167.268,220.8 C167.083,221.13 159.771,233.513 151.018,248.318 C142.265,263.124 135.197,275.331 135.312,275.445 C135.426,275.56 137.923,275.46 140.86,275.223 C143.797,274.987 147.64,274.692 149.4,274.569 L152.6,274.344 L157.226,282.415 C159.77,286.854 162.019,290.493 162.224,290.501 C162.429,290.51 165.189,286.125 168.359,280.758 C171.528,275.391 176.034,267.76 178.373,263.8 C195.473,234.843 199.803,227.6 200.015,227.6 C200.147,227.6 201.642,229.985 203.337,232.9 C213.781,250.864 237.442,290.774 237.655,290.786 C237.795,290.794 240.045,287.098 242.655,282.573 L247.4,274.346 L250.2,274.559 C251.74,274.677 255.579,274.975 258.73,275.223 C261.882,275.47 264.552,275.581 264.664,275.469 C264.776,275.357 256.482,261.076 246.233,243.733 L227.597,212.2 L264.399,212.098 C284.639,212.042 301.2,211.884 301.2,211.747 C301.2,211.609 299.142,207.957 296.627,203.629 C294.112,199.302 291.997,195.579 291.927,195.355 C291.857,195.132 294.005,191.852 296.7,188.066 C299.395,184.28 301.6,181.097 301.6,180.991 C301.6,180.886 284.95,180.8 264.6,180.8 C244.25,180.8 227.6,180.725 227.6,180.634 C227.6,180.543 231.045,174.648 235.256,167.534 C246.886,147.885 264.894,117.43 265.042,117.161 C265.113,117.029 260.805,117.008 255.468,117.115 L245.763,117.308 L241.395,109.874 C238.992,105.785 237.002,102.476 236.972,102.52 C236.942,102.564 234.437,106.83 231.405,112 C218.215,134.492 200.653,164.241 200.295,164.698 C199.922,165.175 189.022,147.088 169.501,113.6 C165.974,107.55 163.046,102.547 162.994,102.483 C162.942,102.418 160.941,105.719 158.549,109.818" id="path1" fill="#FFFFFF"></path>
                <path d="M159.674,80.848 C158.725,82.472 154.937,88.93 151.257,95.2 L144.567,106.6 L129.284,106.705 C120.363,106.766 114,106.962 114,107.176 C114,107.378 114.225,107.788 114.5,108.087 C115.012,108.644 115.339,109.18 117.109,112.368 C117.669,113.376 118.998,115.609 120.063,117.332 C121.128,119.054 122,120.543 122,120.64 C122,120.737 122.49,121.577 123.09,122.508 C123.689,123.439 124.377,124.56 124.618,125 C126.548,128.525 129.02,132.624 129.282,132.733 C129.457,132.807 129.6,133.094 129.6,133.371 C129.6,134.887 130.834,135.161 138.211,135.282 L145.4,135.4 L140.988,128 C138.561,123.93 136.063,119.72 135.438,118.644 L134.301,116.689 L144.186,116.844 L154.07,117 L158.335,109.712 C160.681,105.704 162.714,102.419 162.853,102.412 C162.993,102.405 165.301,106.106 167.982,110.635 L172.858,118.87 L175.829,113.628 L178.801,108.385 L177.8,106.8 C177.25,105.929 176.8,105.13 176.8,105.026 C176.8,104.921 176.353,104.176 175.806,103.37 C175.259,102.564 174.927,101.719 175.068,101.491 C175.21,101.261 175.131,101.195 174.891,101.344 C174.487,101.593 173.742,100.177 173.921,99.5 C173.964,99.335 173.816,99.2 173.59,99.2 C173.365,99.2 173.002,98.795 172.784,98.3 C172.566,97.805 172.033,96.86 171.6,96.2 C170.614,94.699 169.851,93.094 169.935,92.7 C169.971,92.535 169.849,92.4 169.664,92.4 C169.479,92.4 168.84,91.545 168.245,90.5 C167.649,89.455 166.813,88.06 166.386,87.4 C165.958,86.74 165.483,85.93 165.33,85.6 C165.177,85.27 164.29,83.706 163.36,82.125 C162.429,80.543 161.608,78.945 161.534,78.573 C161.45,78.148 160.758,78.995 159.674,80.848 M237.664,78.896 C237.409,79.151 237.2,79.594 237.2,79.88 C237.2,80.166 237.038,80.4 236.839,80.4 C236.641,80.4 236.281,80.895 236.039,81.5 C235.553,82.716 234.056,85.287 233.651,85.6 C233.509,85.71 233.034,86.517 232.596,87.392 C232.158,88.268 231.305,89.69 230.7,90.552 C230.095,91.415 229.6,92.363 229.6,92.66 C229.6,92.957 229.432,93.2 229.227,93.2 C229.022,93.2 228.734,93.579 228.587,94.041 C228.355,94.772 227.037,96.981 226.106,98.2 C225.938,98.42 225.385,99.41 224.878,100.4 C224.371,101.39 223.616,102.74 223.201,103.4 C222.107,105.136 221.2,106.875 221.2,107.235 C221.2,107.715 227.178,117.385 227.555,117.515 C227.738,117.578 229.918,114.189 232.399,109.984 C236.055,103.789 237.004,102.44 237.406,102.869 C237.678,103.161 239.72,106.488 241.942,110.263 L245.984,117.125 L255.658,116.9 C263.87,116.71 265.301,116.761 265.117,117.238 C264.998,117.547 262.722,121.49 260.059,126 L255.218,134.2 L261.509,134.314 C268.978,134.45 269.311,134.388 270.17,132.704 C270.536,131.987 271.143,130.922 271.518,130.339 C272.311,129.105 275.258,124.08 275.705,123.2 C275.872,122.87 276.357,122.06 276.782,121.4 C277.207,120.74 277.81,119.75 278.122,119.2 C278.433,118.65 279.703,116.528 280.944,114.484 C282.185,112.441 283.2,110.679 283.2,110.569 C283.2,110.459 283.83,109.433 284.6,108.29 C285.37,107.146 286,106.073 286,105.905 C286,105.737 280.538,105.6 273.861,105.6 C267.185,105.6 260.107,105.485 258.132,105.345 L254.541,105.09 L246.586,91.916 C238.02,77.731 238.349,78.211 237.664,78.896 M84.586,186.376 L92.384,200.014 L91.246,201.907 C90.621,202.948 87.351,208.57 83.98,214.4 C80.609,220.23 77.659,225.132 77.425,225.294 C77.191,225.456 84.862,225.591 94.471,225.594 L111.942,225.6 L112.671,224.657 C113.072,224.139 114.84,221.176 116.6,218.073 L119.8,212.431 C105.266667,212.087667 98,211.881667 98,211.813 C98,211.711 100.242,208.035 102.982,203.645 L107.964,195.663 L103.782,188.177 C101.482,184.06 99.6,180.626 99.6,180.546 C99.6,180.465 103.83,180.4 109,180.4 C114.17,180.4 118.4,180.332 118.4,180.249 C118.4,180.166 117.23,178.06 115.8,175.57 C114.37,173.079 113.2,170.897 113.2,170.72 C113.2,170.544 104.735,170.4 94.39,170.4 L75.579,170.4 L76.184,171.569 C76.517,172.212 80.298,178.875 84.586,186.376 Z M279.695,180.2 L290.888,180.306 C300.111,180.394 302.044,180.508 301.873,180.955 C301.758,181.253 299.611,184.355 297.102,187.848 C294.593,191.342 292.414,194.414 292.261,194.676 C292.104,194.943 294.081,198.804 296.767,203.476 L301.553,211.8 L282.236,212.4 L285.885,218.9 L289.533,225.4 L306.541,225.504 L323.548,225.609 L317.738,215.304 C314.542,209.637 310.593,202.646 308.964,199.768 C307.334,196.89 306,194.33 306,194.079 C306,193.827 309.06,188.572 312.8,182.4 C316.54,176.228 319.6,171.003 319.6,170.789 C319.6,170.543 313.333,170.407 302.5,170.419 L285.4,170.438 L282.547,175.319 L279.695,180.2 Z M254.4,257.022 C254.4,257.144 256.745,261.193 259.611,266.019 C266.123,276.984 265.792,276.066 263.146,275.81 C261.966,275.696 258.66,275.416 255.8,275.187 C252.94,274.959 249.953,274.677 249.162,274.561 L247.724,274.351 L244.513,279.875 C242.746,282.914 240.55,286.705 239.633,288.3 C237.758,291.56 237.65,291.627 236.765,290.097 C236.416,289.494 234.052,285.451 231.513,281.114 L226.896,273.228 L223.248,279.646 C219.063,287.007 219.241,286.352 220.8,288.662 C221.46,289.64 222,290.516 222,290.609 C222,290.766 225.149,296.285 225.989,297.6 C226.888,299.006 230.613,305.409 230.752,305.787 C230.836,306.014 231.131,306.47 231.409,306.8 C231.686,307.13 232.251,308.03 232.665,308.8 C234.697,312.579 236.947,316.009 237.206,315.722 C237.364,315.545 240.151,310.63 243.398,304.8 C246.645,298.97 250.044,292.897 250.951,291.304 L252.6,288.408 L268.5,288.404 C285.034,288.4 285.65,288.335 283.8,286.8 C283.47,286.526 283.2,286.141 283.2,285.943 C283.2,285.746 282.748,284.868 282.195,283.992 C281.642,283.116 281.327,282.397 281.495,282.394 C281.663,282.391 281.604,282.256 281.365,282.094 C280.533,281.531 276.394,274.333 276.658,273.907 C276.762,273.738 276.674,273.6 276.463,273.6 C276.002,273.6 274.4,270.976 274.4,270.22 C274.4,269.926 274.104,269.572 273.743,269.433 C273.381,269.295 273.203,269.064 273.346,268.92 C273.49,268.777 273.278,268.286 272.876,267.83 C271.807,266.617 269.2,262.038 269.2,261.371 C269.2,261.057 269.011,260.8 268.779,260.8 C268.548,260.8 268.17,260.26 267.94,259.6 C267.71,258.94 267.371,258.4 267.188,258.4 C267.004,258.4 266.74,258.04 266.6,257.6 C266.356,256.83 254.4,256.264 254.4,257.022 M131.3,259.465 C131.025,259.576 130.792,259.877 130.783,260.133 C130.774,260.39 129.963,261.86 128.982,263.4 C128,264.94 127.007,266.646 126.774,267.192 C126.541,267.737 126.226,268.277 126.075,268.392 C125.924,268.506 125.44,269.32 125,270.2 C124.56,271.08 123.733,272.52 123.162,273.4 C122.59,274.28 121.69,275.81 121.162,276.8 C120.633,277.79 120.101,278.69 119.981,278.8 C119.779,278.984 119.003,280.292 116.895,284 C116.458,284.77 115.345,286.631 114.423,288.136 C113.501,289.642 112.65,291.125 112.532,291.432 C112.351,291.905 114.998,292.008 129.643,292.096 L146.969,292.2 L153.987,304.6 C157.847,311.42 161.159,317 161.347,317 C161.534,317 162.259,315.968 162.957,314.707 C163.655,313.445 164.446,312.194 164.713,311.927 C164.981,311.659 165.2,311.27 165.2,311.061 C165.2,310.853 165.785,309.762 166.5,308.638 C168.228,305.919 168.584,305.319 169.73,303.2 C170.266,302.21 171.04,300.835 171.452,300.143 C171.863,299.452 173.19,297.202 174.4,295.143 C175.61,293.085 176.812,291.04 177.071,290.6 C177.33,290.16 177.845,289.215 178.216,288.5 C178.588,287.785 179.03,287.2 179.199,287.2 C180.374,287.2 179.612,285.132 176.395,279.591 L172.878,273.534 L167.59,282.432 C162.437,291.103 162.285,291.308 161.651,290.463 C161.293,289.986 159.041,286.16 156.647,281.96 L152.294,274.325 L150.647,274.551 C149.741,274.675 146.75,274.963 144,275.191 C141.25,275.419 138.055,275.696 136.9,275.807 C134.197,276.065 134.073,276.489 139.249,267.735 C141.696,263.596 143.785,259.983 143.892,259.705 C144.086,259.198 132.509,258.977 131.3,259.465" id="path2" fill="#30659F"></path>
                <path d="M121.332,13.303 C120.855,14.016 120.078,15.32 119.606,16.2 C119.134,17.08 118.38,18.43 117.932,19.2 C117.484,19.97 116.171,22.22 115.016,24.2 C113.86,26.18 112.467,28.61 111.919,29.6 C111.372,30.59 110.311,32.449 109.562,33.73 C108.813,35.012 107.605,37.082 106.877,38.33 C106.15,39.579 105.454,40.915 105.331,41.3 C105.047,42.185 103.468,42.203 95.4,41.414 C73.991,39.318 73.677,39.308 74.922,40.74 C75.238,41.103 75.999,42.3 76.613,43.4 C77.227,44.5 77.98,45.85 78.287,46.4 C78.594,46.95 79.193,47.94 79.618,48.6 C80.043,49.26 80.528,50.07 80.695,50.4 C81.184,51.363 84.136,56.379 84.896,57.539 C85.278,58.122 85.717,58.87 85.871,59.2 C86.025,59.53 87.128,61.42 88.322,63.4 C89.516,65.38 90.851,67.63 91.288,68.4 C91.726,69.17 93.571,72.32 95.388,75.4 C97.206,78.48 101.603,85.95 105.159,92 C108.716,98.05 111.8,103.27 112.014,103.6 C112.227,103.93 112.563,104.567 112.759,105.016 C113.548,106.818 113.515,106.815 129.434,106.705 L144.574,106.6 L151.494,94.8 C155.3,88.31 159.045,81.931 159.816,80.624 C161.415,77.917 161.49,78.303 158.36,73.2 C157.483,71.77 156.59,70.24 156.377,69.8 C156.163,69.36 155.676,68.522 155.294,67.939 C154.531,66.772 151.58,61.754 151.095,60.8 C150.928,60.47 150.435,59.66 150,59 C149.565,58.34 149.082,57.53 148.928,57.2 C148.773,56.87 147.646,54.923 146.423,52.874 C143.677,48.27 143.747,48.39 141.8,45.054 C140.92,43.546 140.02,42.017 139.8,41.656 C139.58,41.295 138.449,39.38 137.286,37.4 C136.124,35.42 135,33.53 134.789,33.2 C134.136,32.178 130.964,26.634 130.67,26 C130.517,25.67 130.078,24.922 129.696,24.339 C129.313,23.755 128.282,22.045 127.405,20.539 C126.528,19.032 125.628,17.5 125.405,17.134 C125.182,16.768 124.402,15.463 123.671,14.234 C122.102,11.598 122.395,11.714 121.332,13.303 M275.388,14.713 C273.414,18.11 265.699,31.2 265.201,32 C264.398,33.288 260.583,39.813 260.295,40.39 C260.128,40.725 259.678,41.478 259.295,42.061 C258.535,43.222 255.583,48.239 255.095,49.2 C254.928,49.53 254.435,50.34 254.001,51 C253.567,51.66 253.032,52.56 252.813,53 C252.593,53.44 251.963,54.52 251.411,55.4 C250.86,56.28 250.224,57.36 249.998,57.8 C249.773,58.24 249.243,59.14 248.822,59.8 C248.401,60.46 247.573,61.9 246.983,63 C246.393,64.1 245.688,65.27 245.416,65.6 C245.144,65.93 244.797,66.47 244.645,66.8 C244.493,67.13 244.148,67.76 243.879,68.2 C243.61,68.64 242.709,70.17 241.878,71.6 C241.047,73.03 240.15,74.553 239.884,74.985 C238.075,77.919 237.642,78.792 238.041,78.702 C238.29,78.646 242.106,84.56 246.52,91.845 L254.546,105.091 L258.134,105.345 C271.966,106.327 287.2,105.569 287.2,103.899 C287.2,103.715 294.412,91.232 296.385,88 C297.489,86.192 305.758,72.193 306.153,71.463 C306.563,70.706 307.348,69.4 309.084,66.585 C310.322,64.578 313.454,59.185 314.534,57.201 C315.193,55.99 315.856,54.91 316.008,54.8 C316.16,54.69 317.038,53.25 317.959,51.6 C318.881,49.95 319.852,48.244 320.117,47.81 C320.383,47.375 321.185,46.067 321.9,44.902 C322.615,43.737 323.2,42.63 323.2,42.441 C323.2,42.252 323.47,41.874 323.8,41.6 C324.633,40.909 324.567,39.6 323.7,39.599 C323.315,39.599 320.3,39.863 317,40.185 C305.631,41.295 297.396,42.009 295.996,42.004 C294.454,42 294.519,42.071 292.202,37.8 C291.367,36.26 290.492,34.756 290.258,34.457 C289.793,33.866 289,32.548 288.54,31.6 C288.234,30.97 282.276,20.636 281.622,19.6 C281.413,19.27 280.763,18.1 280.177,17 C279.59,15.9 278.861,14.716 278.555,14.369 C278.25,14.021 278,13.548 278,13.317 C278,11.587 276.848,12.202 275.388,14.713 M0,170.562 C0,170.942 1.134,173.176 2.52,175.527 C3.906,177.877 5.168,180.07 5.325,180.4 C5.641,181.064 6.234,182.095 10.134,188.752 C11.6,191.255 12.8,193.365 12.8,193.44 C12.8,193.514 13.725,195.141 14.855,197.055 C16.514,199.864 16.822,200.657 16.453,201.168 C16.201,201.515 15.875,202.056 15.728,202.369 C15.581,202.683 15.204,203.223 14.891,203.569 C14.577,203.916 13.483,205.398 12.46,206.861 C11.437,208.325 9.88,210.553 9,211.812 C6.59,215.261 3.68,219.349 3.315,219.8 C2.116,221.278 0,224.47 0,224.801 C0,225.064 13.29,225.198 38.9,225.194 L77.8,225.188 L78.855,223.294 C79.436,222.252 82.711,216.58 86.133,210.69 L92.355,199.98 L83.914,185.19 L75.473,170.4 L48.601,170.4 C33.822,170.4 16.841,170.281 10.865,170.136 C0.737,169.889 0,169.918 0,170.562 M352.7,170.3 C331.713,170.366 319.6,170.546 319.6,170.792 C319.6,171.004 316.54,176.228 312.8,182.4 C305.004,195.264 305.504,193.763 307.736,197.608 C308.691,199.254 312.583,206.135 316.385,212.9 L323.297,225.2 L360.26,225.2 L397.224,225.2 L395.935,222.9 C395.226,221.635 394.234,219.88 393.73,219 C393.226,218.12 392.65,217.04 392.451,216.6 C392.251,216.16 391.258,214.4 390.244,212.688 C389.23,210.977 388.4,209.498 388.4,209.401 C388.4,209.304 387.525,207.734 386.456,205.912 C381.952,198.237 382.133,199.306 384.7,195.524 C385.415,194.47 386,193.529 386,193.432 C386,193.25 388.166,189.878 390.847,185.887 C391.701,184.616 392.4,183.5 392.4,183.407 C392.4,183.315 392.94,182.44 393.6,181.462 C394.26,180.484 394.8,179.485 394.8,179.242 C394.8,178.999 394.958,178.8 395.151,178.8 C395.345,178.8 395.727,178.26 396,177.6 C396.273,176.94 396.655,176.4 396.849,176.4 C397.042,176.4 397.2,176.213 397.2,175.984 C397.2,175.756 397.83,174.633 398.6,173.49 C400.998,169.928 401.093,169.985 392.9,170.098 C388.995,170.151 370.905,170.242 352.7,170.3 M284.4,287.933 C284.4,288.281 280.345,288.401 268.5,288.404 L252.6,288.408 L250.951,291.304 C247.393,297.554 237.873,314.645 237.52,315.418 C237.162,316.202 238.098,318.128 241.273,323.138 C241.643,323.722 242.32,324.886 242.779,325.724 C243.41,326.879 250.367,338.623 253.604,344 C255.488,347.129 261.704,357.748 262.385,359 C262.863,359.88 263.557,361.076 263.927,361.658 C264.297,362.239 265.59,364.399 266.8,366.458 C268.01,368.516 269.218,370.56 269.484,371 C269.751,371.44 270.096,372.054 270.252,372.364 C270.553,372.965 275.616,381.306 275.82,381.537 C276.029,381.774 283.2,369.901 283.2,369.318 C283.2,369.178 283.45,368.779 283.755,368.431 C284.061,368.084 284.793,366.9 285.383,365.8 C285.973,364.7 286.801,363.26 287.222,362.6 C287.643,361.94 288.174,361.04 288.401,360.6 C288.628,360.16 289.337,358.9 289.977,357.8 L291.141,355.8 L295.671,355.806 C298.162,355.81 305.735,355.972 312.5,356.167 C319.265,356.362 324.8,356.381 324.8,356.209 C324.8,355.942 323.22,353.124 321.99,351.2 C321.779,350.87 319.354,346.73 316.6,342 C313.846,337.27 311.421,333.13 311.21,332.8 C310.873,332.271 307.27,326.163 306.2,324.306 C305.98,323.924 304.54,321.502 303,318.924 C301.46,316.346 300.126,314.049 300.036,313.819 C299.946,313.588 299.034,312.05 298.008,310.4 C296.982,308.75 296.019,307.13 295.868,306.8 C295.717,306.47 295.214,305.57 294.751,304.8 C294.288,304.03 292.643,301.24 291.095,298.6 C284.83,287.911 284.4,287.226 284.4,287.933 M111.012,293.8 C110.432,294.9 109.51,296.52 108.962,297.4 C108.414,298.28 107.863,299.315 107.736,299.7 C107.61,300.085 107.365,300.4 107.192,300.4 C107.02,300.4 106.683,300.895 106.445,301.5 C106.207,302.105 105.836,302.87 105.622,303.2 C104.838,304.407 101.352,310.221 101.065,310.802 C100.902,311.131 100.548,311.76 100.279,312.2 C100.01,312.64 99.109,314.17 98.278,315.6 C97.447,317.03 96.596,318.47 96.387,318.8 C96.178,319.13 93.754,323.27 91,328 C88.246,332.73 85.824,336.87 85.617,337.2 C85.41,337.53 83.747,340.314 81.92,343.386 C80.094,346.458 78.38,349.338 78.111,349.786 C77.842,350.234 77.39,351.05 77.107,351.6 C76.823,352.15 76.098,353.361 75.495,354.292 C74.893,355.223 74.4,356.106 74.4,356.255 C74.4,356.404 80.115,356.368 87.1,356.175 C94.085,355.983 101.674,355.819 103.965,355.812 L108.129,355.8 L108.92,357.2 C109.355,357.97 110.16,359.41 110.708,360.4 C111.255,361.39 111.927,362.47 112.2,362.8 C112.472,363.13 112.764,363.58 112.848,363.8 C113.039,364.302 115.964,369.317 116.895,370.739 C117.278,371.322 117.728,372.07 117.895,372.4 C118.201,373.002 120.81,377.505 121.716,378.995 C123.37,381.715 123.725,381.841 124.542,380 C124.689,379.67 125.165,378.86 125.6,378.2 C126.035,377.54 126.514,376.73 126.664,376.4 C126.813,376.07 127.535,374.852 128.268,373.692 C129.001,372.533 129.6,371.518 129.6,371.437 C129.6,371.309 145.363,344.419 146.387,342.8 C146.596,342.47 147.887,340.31 149.255,338 C150.624,335.69 153.061,331.584 154.672,328.875 C156.282,326.166 157.6,323.856 157.6,323.742 C157.6,323.629 158.199,322.605 158.93,321.468 C161.525,317.435 161.573,317.333 161.113,316.873 C160.874,316.634 157.595,310.985 153.826,304.319 L146.974,292.2 L129.52,292 L112.065,291.8 L111.012,293.8" id="path3" fill="#77ACD4"></path>
                <path d="M198.605,1.592 C198.052,2.468 197.6,3.274 197.6,3.384 C197.6,3.494 197.001,4.533 196.268,5.692 C195.535,6.852 194.813,8.07 194.664,8.4 C194.514,8.73 194.035,9.54 193.6,10.2 C193.165,10.86 192.682,11.67 192.528,12 C192.373,12.33 189.941,16.518 187.123,21.307 C184.305,26.096 182,30.092 182,30.187 C182,30.282 181.46,31.16 180.8,32.138 C180.14,33.116 179.6,34.034 179.6,34.177 C179.6,34.321 179.004,35.375 178.276,36.519 C177.547,37.664 176.825,38.87 176.671,39.2 C176.517,39.53 176.035,40.34 175.6,41 C175.165,41.66 174.68,42.47 174.524,42.8 C174.367,43.13 172.596,46.19 170.588,49.6 C168.58,53.01 166.46,56.655 165.876,57.7 L164.816,59.6 L165.605,60.9 C166.038,61.615 166.518,62.47 166.67,62.8 C167.075,63.681 173.733,74.965 173.985,75.2 C174.103,75.31 174.633,76.21 175.162,77.2 C175.69,78.19 176.635,79.774 177.262,80.72 C177.888,81.666 178.4,82.511 178.4,82.599 C178.4,82.686 180.115,85.647 182.212,89.178 L186.023,95.6 L185.112,97.174 C184.61,98.04 183.088,100.605 181.728,102.874 C180.369,105.143 179.08,107.45 178.864,108 C178.648,108.55 177.209,111.222 175.665,113.938 L172.859,118.876 L174.67,121.938 C175.666,123.622 181.72,133.865 188.123,144.7 C194.526,155.535 199.863,164.4 199.983,164.4 C200.102,164.4 206.369,153.965 213.908,141.211 L227.616,118.022 L224.408,112.788 C222.644,109.91 221.2,107.394 221.2,107.199 C221.2,107.003 219.85,104.603 218.2,101.865 C215.333,97.107 214.734,95.535 215.588,95.008 C215.801,94.876 216.798,93.29 217.803,91.484 C218.809,89.678 219.849,87.844 220.116,87.41 C220.382,86.975 221.185,85.667 221.9,84.502 C222.615,83.337 223.2,82.279 223.2,82.15 C223.2,82.021 223.74,81.116 224.4,80.138 C225.06,79.16 225.6,78.293 225.6,78.212 C225.6,78.131 227.942,74.099 230.805,69.253 C237.14,58.528 236.692,59.82 234.976,57.196 C234.186,55.988 233.37,54.64 233.164,54.2 C232.957,53.76 232.476,52.919 232.094,52.331 C230.978,50.612 226.285,42.886 225.253,41.068 C224.732,40.151 223.472,38.046 222.453,36.392 C221.434,34.737 220.383,33.027 220.117,32.592 C217.236,27.869 215.685,25.353 215.104,24.465 C214.722,23.879 214.285,23.13 214.134,22.8 C213.982,22.47 213.401,21.48 212.843,20.6 C212.284,19.72 211.461,18.36 211.013,17.579 C210.566,16.797 208.614,13.557 206.676,10.379 C202.527,3.576 202.466,3.476 201.295,1.515 C200.158,-0.388 199.849,-0.379 198.605,1.592 M302.151,98.3 C301.186,99.731 300.502,100.854 300.14,101.6 C299.98,101.93 298.869,103.82 297.671,105.8 C296.473,107.78 295.292,109.764 295.047,110.209 C294.801,110.654 291.562,116.16 287.85,122.446 L281.1,133.875 L271.85,134.137 C266.762,134.28 260.89,134.399 258.8,134.399 L255,134.401 L253.845,136.5 C253.209,137.655 251.831,140.04 250.782,141.8 C249.733,143.56 244.417,152.56 238.969,161.8 C233.522,171.04 228.804,179.005 228.486,179.5 L227.908,180.4 L253.735,180.4 L279.563,180.4 L282.472,175.5 C284.073,172.805 285.596,170.465 285.857,170.299 C286.118,170.134 287.02,168.784 287.861,167.299 C288.702,165.815 289.572,164.301 289.795,163.936 C290.018,163.571 291.001,161.906 291.98,160.236 L293.759,157.2 L314.041,157.2 L334.322,157.2 L335.696,155.1 C336.452,153.945 337.191,152.73 337.339,152.4 C337.488,152.07 337.965,151.26 338.4,150.6 C338.835,149.94 339.318,149.13 339.473,148.8 C339.628,148.47 340.501,147.03 341.413,145.6 C342.325,144.17 343.505,142.19 344.036,141.2 C344.566,140.21 345.091,139.31 345.201,139.2 C345.498,138.905 347.959,134.873 349.107,132.8 C349.655,131.81 350.35,130.716 350.652,130.369 C350.953,130.021 351.2,129.607 351.2,129.447 C351.2,129.288 351.98,127.952 352.933,126.479 C353.886,125.005 355.101,122.99 355.633,122 C356.165,121.01 356.697,120.11 356.815,120 C356.934,119.89 358.157,117.91 359.535,115.6 C360.912,113.29 362.203,111.13 362.404,110.8 C366.167,104.623 368,101.546 368,101.407 C368,101.313 368.45,100.572 369,99.762 C370.875,96.999 373.426,97.2 336.446,97.2 L302.892,97.2 L302.151,98.3 M30,98.786 C30,99.225 30.91,100.891 34.599,107.199 C36.03,109.645 37.2,111.704 37.2,111.776 C37.2,111.847 38.64,114.378 40.4,117.4 C42.16,120.422 43.6,122.953 43.6,123.024 C43.6,123.096 44.735,125.099 46.123,127.477 C47.511,129.855 48.778,132.07 48.939,132.4 C49.1,132.73 49.449,133.361 49.716,133.802 C49.982,134.244 50.905,135.864 51.766,137.402 C52.627,138.941 53.437,140.29 53.566,140.4 C53.695,140.51 54.212,141.41 54.715,142.4 C55.219,143.39 55.794,144.47 55.994,144.8 C56.85,146.209 60.275,152.251 60.53,152.8 C60.683,153.13 61.169,153.94 61.609,154.6 C62.049,155.26 62.518,156.115 62.651,156.5 C62.878,157.155 64.256,157.2 83.976,157.2 L105.058,157.2 L105.95,158.9 C107.105,161.101 108.717,163.935 109.535,165.2 C109.89,165.75 110.614,167.01 111.143,168 C111.672,168.99 112.361,170.07 112.674,170.4 C112.987,170.73 114.438,173.115 115.899,175.7 L118.555,180.4 L145.253,180.4 L171.95,180.4 L165.509,169.5 C161.966,163.505 155.968,153.38 152.18,147 L145.293,135.4 L137.146,135.155 C132.666,135.02 127.106,134.885 124.791,134.855 L120.582,134.8 L119.802,133.3 C119.373,132.475 117.892,129.95 116.511,127.689 C115.13,125.429 114,123.475 114,123.347 C114,123.22 113.46,122.316 112.8,121.338 C112.14,120.36 111.6,119.47 111.6,119.361 C111.6,119.251 110.97,118.177 110.2,116.973 C109.43,115.769 108.8,114.694 108.8,114.584 C108.8,114.474 108.31,113.623 107.71,112.692 C107.111,111.761 106.421,110.64 106.178,110.2 C105.302,108.615 102.985,104.707 102.304,103.665 C101.922,103.079 101.485,102.33 101.334,102 C101.182,101.67 100.638,100.725 100.124,99.9 L99.19,98.4 L64.595,98.4 C42.647,98.4 30,98.541 30,98.786 M116.6,218.081 C114.84,221.19 113.022,224.199 112.559,224.767 C112.097,225.335 111.287,226.545 110.759,227.456 C110.232,228.367 109.202,230.122 108.471,231.356 L107.141,233.6 L86.471,233.603 L65.8,233.605 L65.168,234.703 C64.821,235.306 62.706,238.921 60.468,242.736 C58.231,246.551 56.4,249.741 56.4,249.826 C56.4,249.91 54.72,252.819 52.667,256.29 C49.317,261.953 47.877,264.438 46.113,267.6 C45.806,268.15 45.207,269.14 44.782,269.8 C44.357,270.46 43.884,271.259 43.732,271.576 C43.356,272.361 37.304,282.851 36.796,283.6 C36.572,283.93 36.193,284.695 35.955,285.3 C35.717,285.905 35.359,286.4 35.161,286.4 C34.962,286.4 34.8,286.566 34.8,286.768 C34.8,286.97 33.72,288.994 32.4,291.266 C31.08,293.538 30,295.533 30,295.7 C30,295.868 45.155,295.959 63.679,295.902 L97.357,295.8 L99.214,292.6 C101.918,287.941 115.139,265.505 115.597,264.8 C115.811,264.47 116.569,263.186 117.281,261.947 L118.575,259.695 L131.453,259.402 L144.33,259.109 L158.13,235.755 L171.929,212.4 L145.865,212.413 L119.8,212.427 L116.6,218.081 M231.318,217.952 C233.123,221.006 239.01,230.989 244.4,240.137 L254.2,256.771 L259.4,256.841 C276.506,257.074 281.295,257.364 281.758,258.196 C282.001,258.634 282.757,259.894 283.438,260.996 C285.767,264.768 287.2,267.212 287.2,267.414 C287.2,267.525 287.69,268.377 288.29,269.308 C288.889,270.239 289.634,271.45 289.944,272 C291.395,274.568 291.695,275.078 292.418,276.2 C292.843,276.86 293.328,277.67 293.495,278 C293.912,278.82 296.845,283.832 297.673,285.139 C298.338,286.189 299.035,287.403 300.86,290.697 L301.8,292.393 L335.9,292.397 C363.143,292.399 370,292.298 370,291.894 C370,291.615 369.265,290.13 368.367,288.594 C367.468,287.057 366.237,284.9 365.63,283.8 C365.023,282.7 363.394,279.82 362.009,277.4 C360.625,274.98 358.946,272.01 358.279,270.8 C357.611,269.59 356.646,267.929 356.133,267.108 C355.62,266.287 355.2,265.533 355.2,265.431 C355.2,265.329 354.03,263.245 352.6,260.8 C351.17,258.355 350,256.298 350,256.229 C350,256.16 348.83,254.091 347.4,251.63 C345.97,249.17 344.8,247.1 344.8,247.03 C344.8,246.961 343.664,244.945 342.276,242.552 C340.888,240.158 339.625,237.93 339.468,237.6 C339.312,237.27 338.781,236.28 338.289,235.4 L337.393,233.8 L316.065,233.696 C299.711,233.617 294.627,233.477 294.268,233.096 C294.011,232.823 293.391,231.79 292.892,230.8 C291.972,228.977 291.034,227.404 289.175,224.566 C288.611,223.704 286.82,220.615 285.195,217.7 L282.241,212.4 L255.139,212.4 L228.037,212.4 L231.318,217.952 M190.415,243.908 C185.253,252.648 179.195,262.89 176.954,266.668 L172.879,273.535 L176.427,279.647 C178.379,283.008 179.912,285.822 179.834,285.9 C179.756,285.978 181.003,288.308 182.607,291.078 L185.522,296.115 L184.782,297.431 C184.376,298.155 183.583,299.476 183.021,300.366 C182.46,301.256 182,302.081 182,302.2 C182,302.319 181.51,303.177 180.91,304.108 C180.311,305.039 179.621,306.16 179.378,306.6 C178.757,307.722 177.3,310.211 169.712,323.1 L164.709,331.6 L165.384,332.9 C165.755,333.615 166.631,335.221 167.33,336.468 C168.028,337.715 169.116,339.695 169.747,340.868 C170.377,342.041 171.067,343.217 171.28,343.482 C171.493,343.747 171.977,344.557 172.356,345.282 C173.572,347.612 176.095,352.118 177.871,355.133 C178.822,356.746 179.6,358.133 179.6,358.215 C179.6,358.298 180.114,359.237 180.743,360.303 C181.372,361.37 182.387,363.133 182.999,364.221 C183.611,365.309 184.562,367.001 185.113,367.979 C185.663,368.957 186.628,370.63 187.257,371.697 C187.886,372.763 188.4,373.712 188.4,373.806 C188.4,373.9 189.23,375.377 190.244,377.088 C191.258,378.8 192.248,380.56 192.443,381 C192.638,381.44 192.969,382.07 193.178,382.4 C193.827,383.423 197.436,389.767 197.73,390.4 C198.361,391.759 199.462,393.354 199.859,393.486 C200.236,393.612 201.787,391.142 205.439,384.6 C206.053,383.5 206.967,381.88 207.471,381 C207.975,380.12 208.552,379.04 208.755,378.6 C208.957,378.16 210.49,375.392 212.161,372.449 C213.833,369.506 215.2,367.045 215.2,366.98 C215.2,366.916 216.1,365.305 217.2,363.4 C218.3,361.495 219.2,359.871 219.2,359.792 C219.2,359.712 220.335,357.701 221.722,355.323 C223.109,352.945 224.648,350.19 225.141,349.2 C225.635,348.21 226.209,347.13 226.416,346.8 C227.251,345.473 230.8,339.125 230.8,338.961 C230.8,338.863 231.22,338.113 231.732,337.292 C232.245,336.471 233.343,334.558 234.173,333.039 L235.681,330.278 L234.819,328.639 C234.344,327.738 233.608,326.46 233.183,325.8 C232.757,325.14 232.272,324.33 232.105,324 C231.617,323.039 228.665,318.022 227.905,316.861 C227.522,316.278 227.072,315.525 226.905,315.19 C226.618,314.616 222.811,308.105 222,306.8 C219.915,303.449 215.2,295.161 215.2,294.847 C215.2,294.626 216.19,292.754 217.4,290.687 C218.61,288.621 219.6,286.71 219.6,286.443 C219.6,286.175 220.565,284.301 221.744,282.278 C222.924,280.255 224.548,277.405 225.354,275.944 L226.82,273.288 L223.568,267.744 C221.78,264.695 219.194,260.31 217.821,258 C216.449,255.69 211.923,247.999 207.763,240.909 C203.603,233.819 200.11,228.017 200,228.017 C199.89,228.016 195.577,235.167 190.415,243.908" id="path4" fill="#262261"></path>
            </g>
        </g>
    </g>
</svg>